<svg xmlns="http://www.w3.org/2000/svg" width="1065" height="305" viewBox="0 0 1065 305">
  <metadata><?xpacket begin="﻿" id="W5M0MpCehiHzreSzNTczkc9d"?>
<x:xmpmeta xmlns:x="adobe:ns:meta/" x:xmptk="Adobe XMP Core 5.6-c138 79.159824, 2016/09/14-01:09:01        ">
   <rdf:RDF xmlns:rdf="http://www.w3.org/1999/02/22-rdf-syntax-ns#">
      <rdf:Description rdf:about=""/>
   </rdf:RDF>
</x:xmpmeta>
                                                                                                    
                                                                                                    
                                                                                                    
                                                                                                    
                                                                                                    
                                                                                                    
                                                                                                    
                                                                                                    
                                                                                                    
                                                                                                    
                                                                                                    
                                                                                                    
                                                                                                    
                                                                                                    
                                                                                                    
                                                                                                    
                                                                                                    
                                                                                                    
                                                                                                    
                                                                                                    
                           
<?xpacket end="w"?></metadata>
<defs>
    <style>
      .cls-1 {
        fill: #242424;
      }

      .cls-1, .cls-2 {
        fill-rule: evenodd;
      }

      .cls-2 {
        fill: #b60000;
      }
    </style>
  </defs>
  <g id="Artboard_1" data-name="Artboard 1">
    <g id="Color">
      <path id="_.net" data-name=".net" class="cls-1" d="M1172.56,1201.79a9.026,9.026,0,0,0,1.83,2.86,8.234,8.234,0,0,0,2.82,1.93,10.025,10.025,0,0,0,7.31,0,8.276,8.276,0,0,0,2.83-1.93,9,9,0,0,0,1.82-2.86,9.531,9.531,0,0,0,0-6.97,8.5,8.5,0,0,0-1.82-2.82,8.718,8.718,0,0,0-2.83-1.93,9.515,9.515,0,0,0-7.31,0,8.674,8.674,0,0,0-2.82,1.93,8.529,8.529,0,0,0-1.83,2.82A9.531,9.531,0,0,0,1172.56,1201.79Zm28.23,4.65h11.86v-22.61a14.416,14.416,0,0,1,2.62-1.93,5.856,5.856,0,0,1,2.89-.69,3.456,3.456,0,0,1,3.14,1.31,7.8,7.8,0,0,1,.86,4.2v19.72h11.86V1185.2q0-6.4-2.62-10.23t-8.34-3.83a14.143,14.143,0,0,0-6.62,1.48,21.058,21.058,0,0,0-4.89,3.48h-0.28l-0.83-4.13h-9.65v34.47Zm36.71-9.58a16.348,16.348,0,0,0,4.07,5.68,17.516,17.516,0,0,0,6.13,3.52,23.675,23.675,0,0,0,7.62,1.21,27.312,27.312,0,0,0,6.97-1,24.2,24.2,0,0,0,6.82-3l-3.86-7.03a27.45,27.45,0,0,1-4.24,1.55,15.957,15.957,0,0,1-4.03.51,11.77,11.77,0,0,1-5.55-1.24,6.761,6.761,0,0,1-3.28-4.55h21.86c0.09-.41.19-1.03,0.31-1.86a21.626,21.626,0,0,0,.17-2.83,20,20,0,0,0-1.03-6.48,14.911,14.911,0,0,0-3.11-5.3,14.511,14.511,0,0,0-5.13-3.59,18.156,18.156,0,0,0-7.14-1.31,18.731,18.731,0,0,0-6.72,1.24,17.9,17.9,0,0,0-5.79,3.55,17.1,17.1,0,0,0-4.03,5.69,18.166,18.166,0,0,0-1.52,7.58A18.9,18.9,0,0,0,1237.5,1196.86Zm10.52-11.52a5.822,5.822,0,0,1,2.34-4.06,7.083,7.083,0,0,1,4-1.18c2.02,0,3.42.51,4.2,1.52a5.91,5.91,0,0,1,1.18,3.72h-11.72Zm31.91,6.48a22.728,22.728,0,0,0,.83,6.31,12.327,12.327,0,0,0,2.66,4.9,11.821,11.821,0,0,0,4.75,3.13,20.5,20.5,0,0,0,7.21,1.11,31.815,31.815,0,0,0,6.37-.59q2.865-.585,5.14-1.21l-2-8.54a21.813,21.813,0,0,1-3,.79,18.718,18.718,0,0,1-3.41.31,7.887,7.887,0,0,1-5-1.35q-1.7-1.335-1.69-5.06v-10.41h13.58v-9.24h-13.58v-8.96H1282l-1.51,8.96-8.83.41v8.83h8.27v10.61Z" transform="translate(-255 -930)"/>
      <path id="ode" class="cls-1" d="M358.163,1118.69a58.708,58.708,0,0,0,33.747,32.2,65.56,65.56,0,0,0,46.283,0,59.712,59.712,0,0,0,19.887-12.3,60.86,60.86,0,0,0,13.981-19.9,70.245,70.245,0,0,0,0-53.55,60.9,60.9,0,0,0-13.981-19.91,60.037,60.037,0,0,0-19.887-12.3,65.56,65.56,0,0,0-46.283,0,60.057,60.057,0,0,0-19.887,12.3,59.406,59.406,0,0,0-13.86,19.91A71.75,71.75,0,0,0,358.163,1118.69Zm41.823-48.61q4.577-8.085,15.186-8.08t15.187,8.08q4.575,8.085,4.58,21.83t-4.58,21.83q-4.583,8.085-15.187,8.08t-15.186-8.08q-4.582-8.07-4.58-21.83T399.986,1070.08Zm83.161,48.25a60.308,60.308,0,0,0,10.125,19.9,43.33,43.33,0,0,0,15.789,12.54,48.676,48.676,0,0,0,20.851,4.34,39.025,39.025,0,0,0,16.512-3.86,50.442,50.442,0,0,0,14.584-10.13h0.964l2.893,11.1h33.748V984.325H557.151V1023.4l1.446,17.37a46.287,46.287,0,0,0-12.052-8.8q-6.508-3.255-16.633-3.26a43,43,0,0,0-18.561,4.34,48.967,48.967,0,0,0-16.151,12.43,63.508,63.508,0,0,0-11.33,19.9,76.569,76.569,0,0,0-4.339,26.53A89.4,89.4,0,0,0,483.147,1118.33ZM527.742,1069q5.786-6.525,13.5-6.52a28.643,28.643,0,0,1,8.316,1.21,19.4,19.4,0,0,1,7.593,4.58v44.39c-2.252,3.37-4.7,5.67-7.352,6.87a21.547,21.547,0,0,1-9.04,1.81q-8.92,0-13.86-6.75t-4.942-23.16Q521.957,1075.515,527.742,1069Zm85.452,49.69a56.968,56.968,0,0,0,14.223,19.9,61.3,61.3,0,0,0,21.453,12.3,82.3,82.3,0,0,0,26.637,4.22,94.182,94.182,0,0,0,24.346-3.5,83.659,83.659,0,0,0,23.865-10.49l-13.5-24.6a93.423,93.423,0,0,1-14.825,5.42,54.974,54.974,0,0,1-14.1,1.81,41.29,41.29,0,0,1-19.405-4.34q-8.316-4.335-11.45-15.92h76.415q0.48-2.175,1.084-6.51a72.89,72.89,0,0,0,.6-9.89,69.888,69.888,0,0,0-3.616-22.68,52.38,52.38,0,0,0-10.847-18.57,50.926,50.926,0,0,0-17.959-12.55q-10.728-4.575-24.949-4.58a65.847,65.847,0,0,0-23.5,4.34,62.29,62.29,0,0,0-20.248,12.43,59.871,59.871,0,0,0-14.1,19.9,64.081,64.081,0,0,0-5.3,26.53A66.035,66.035,0,0,0,613.194,1118.69Zm36.761-40.29q1.927-10.125,8.2-14.23a25.007,25.007,0,0,1,13.981-4.1q10.605,0,14.705,5.31a20.684,20.684,0,0,1,4.1,13.02H649.955Z" transform="translate(-255 -930)"/>
      <path id="Cobra" class="cls-2" d="M743.444,1107.71a75.73,75.73,0,0,0,14.584,25.81,62.262,62.262,0,0,0,21.936,16.04,67.957,67.957,0,0,0,27.6,5.55q15.186,0,27-6.03a70.412,70.412,0,0,0,21.213-16.88l-11.571-12.31a62.482,62.482,0,0,1-16.151,13.03,39.7,39.7,0,0,1-19.284,4.58,45.825,45.825,0,0,1-20.61-4.58,44.694,44.694,0,0,1-15.789-13.03,61.01,61.01,0,0,1-10-20.38,95.606,95.606,0,0,1-3.5-26.9,93.43,93.43,0,0,1,3.5-26.53,59.751,59.751,0,0,1,10-20.14,44.123,44.123,0,0,1,15.789-12.79,46.99,46.99,0,0,1,20.61-4.46,38.418,38.418,0,0,1,17.838,3.98,53.177,53.177,0,0,1,13.981,10.49l11.33-12.78a65.113,65.113,0,0,0-17.838-13.511q-10.848-5.788-25.311-5.789a70.521,70.521,0,0,0-28.445,5.668,63.535,63.535,0,0,0-22.418,16.282,74.821,74.821,0,0,0-14.583,25.81q-5.187,15.2-5.183,34.26Q738.141,1092.39,743.444,1107.71Zm110.039,12.06a57.079,57.079,0,0,0,12.656,19.3,53.908,53.908,0,0,0,18.441,11.94,61.378,61.378,0,0,0,44.113,0,53.913,53.913,0,0,0,18.44-11.94,57.079,57.079,0,0,0,12.656-19.3,67.769,67.769,0,0,0,4.7-25.93,68.483,68.483,0,0,0-4.7-26.17,58.519,58.519,0,0,0-12.656-19.42,53.075,53.075,0,0,0-18.44-12.06,61.378,61.378,0,0,0-44.113,0,53.069,53.069,0,0,0-18.441,12.06,58.519,58.519,0,0,0-12.656,19.42,68.483,68.483,0,0,0-4.7,26.17A67.769,67.769,0,0,0,853.483,1119.77Zm18.441-44.38a43.021,43.021,0,0,1,7.593-14.36,33.958,33.958,0,0,1,11.812-9.28,37.566,37.566,0,0,1,30.614,0,33.995,33.995,0,0,1,11.812,9.28,43.129,43.129,0,0,1,7.593,14.36A60.633,60.633,0,0,1,944,1093.84a59.383,59.383,0,0,1-2.652,18.33,41.84,41.84,0,0,1-7.593,14.12,34.486,34.486,0,0,1-11.812,9.16,37.566,37.566,0,0,1-30.614,0,34.448,34.448,0,0,1-11.812-9.16,41.735,41.735,0,0,1-7.593-14.12,59.264,59.264,0,0,1-2.651-18.33A60.51,60.51,0,0,1,871.924,1075.39Zm96.9,76.83h15.91l1.687-13.03h0.723a67.843,67.843,0,0,0,18.2,11.7,46.109,46.109,0,0,0,18.2,4.22,49.414,49.414,0,0,0,37-16.64,61.191,61.191,0,0,0,11.69-20.02,77.426,77.426,0,0,0,4.34-26.78,89.061,89.061,0,0,0-3.14-24.48,54.266,54.266,0,0,0-9.28-18.82,40.917,40.917,0,0,0-15.3-12.06,50.654,50.654,0,0,0-41.83.6,67.434,67.434,0,0,0-18.92,13.03l0.482-22.68V980.466H968.826V1152.22Zm19.766-85.88q9.159-9.165,17.958-13.39a38.418,38.418,0,0,1,16.51-4.22,33.079,33.079,0,0,1,14.95,3.14,27.179,27.179,0,0,1,10.24,8.8,39.8,39.8,0,0,1,5.91,13.63,75.158,75.158,0,0,1,1.93,17.61,67.074,67.074,0,0,1-2.65,19.54,42.21,42.21,0,0,1-7.48,14.59,34.2,34.2,0,0,1-11.33,9.17,31.351,31.351,0,0,1-14.22,3.26q-6.27,0-14.82-3.14a53.918,53.918,0,0,1-17-10.61v-58.38Zm105.1,85.88h19.77v-68.75q10.605-18.33,22.78-25.93a47.274,47.274,0,0,1,25.43-7.6,54.271,54.271,0,0,1,11.33.96,100.756,100.756,0,0,1,10.6,3.14l4.1-17.13a46.859,46.859,0,0,0-10.97-3.74,61.137,61.137,0,0,0-11.93-1.08,55.81,55.81,0,0,0-29.77,8.2,70.74,70.74,0,0,0-22.54,22.43h-0.72l-1.69-27.74h-16.39v117.24Zm99.55-16.29a30.548,30.548,0,0,0,8.56,10.38,40.332,40.332,0,0,0,12.66,6.51,50.678,50.678,0,0,0,15.42,2.29,57.419,57.419,0,0,0,24.47-5.55,111.273,111.273,0,0,0,21.82-13.26h0.72l1.69,15.92h16.15v-71.89q0-21.945-11.69-35.1-11.7-13.14-35.8-13.14a73.4,73.4,0,0,0-15.19,1.57,102.206,102.206,0,0,0-14.1,3.98,110.688,110.688,0,0,0-12.53,5.42,104.209,104.209,0,0,0-10.25,5.91l7.72,13.51a135.884,135.884,0,0,1,18.8-9.53,56.7,56.7,0,0,1,22.18-4.46,38.124,38.124,0,0,1,14.34,2.41,25.784,25.784,0,0,1,9.52,6.4,24.747,24.747,0,0,1,5.3,9.28,42.719,42.719,0,0,1,1.93,11.34,330.415,330.415,0,0,0-38.81,5.31q-16.155,3.375-26.39,8.68-10.26,5.31-14.95,12.67a31.339,31.339,0,0,0-4.7,17.24A30.631,30.631,0,0,0,1193.24,1135.93Zm19.29-26.05q3.12-4.7,10.72-8.44t20.25-6.39a249.988,249.988,0,0,1,31.46-4.1v30.87a89.738,89.738,0,0,1-19.89,12.91,47.253,47.253,0,0,1-19.88,4.46,43.537,43.537,0,0,1-9.77-1.08,25.21,25.21,0,0,1-8.19-3.38,18.642,18.642,0,0,1-5.67-5.79,16,16,0,0,1-2.17-8.56A18.54,18.54,0,0,1,1212.53,1109.88Z" transform="translate(-255 -930)"/>
      <path id="Snake" class="cls-1" d="M525.994,1013.91L508.13,999.116h-21.2c-0.294,7.554-3.26,14.914-9.657,18.084,0,0-63.269-6.04-88.121-.7a80.4,80.4,0,0,0-18.478,4.57,72.514,72.514,0,0,0-41.721,39.78q-6.411,14.6-6.407,33.08t6.407,33.07a73.22,73.22,0,0,0,17.135,24.59,73.959,73.959,0,0,0,24.586,15.2,81.11,81.11,0,0,0,28.757,5.21c0.759,0,1.515-.03,2.272-0.05,0.194,0.01.394,0.04,0.583,0.04,12.922,0.04,47.544-7.56,58.713-11.99s13.039,7.47,2.464,17.31a109.047,109.047,0,0,1-36.35,22.47,119.878,119.878,0,0,1-84.6,0,107.3,107.3,0,0,1-61.685-58.82q-9.48-21.585-9.473-48.91t9.473-48.9a108.417,108.417,0,0,1,25.335-36.35,109.771,109.771,0,0,1,12.617-10.127c5.553-6.082,40.124-35.843,44.808-40.306,21.368-17.955,58.183-17.661,77.953,0,5.378,5.446,13.254,16.447,17.864,19.73,6.487,3.976,18.035,1.558,17.864,1.645,5.22,2.074,8.625,8.92,9.474,16.442H508.13l16.24-14.8,1.624,3.288L513,997.472l12.992,11.508v4.93Zm-93.856-52.781a2.739,2.739,0,0,0-2.739-2.739h-3.64a2.739,2.739,0,0,0-2.739,2.739v15.525a2.739,2.739,0,0,0,2.739,2.739h3.64a2.739,2.739,0,0,0,2.739-2.739V961.129Z" transform="translate(-255 -930)"/>
      <path id="Tongue" class="cls-2" d="M525.994,1013.91L508.13,999.116h-21.2c0-6.576-1.6-4.932,9.244-4.932H508.13l16.24-14.8,1.624,3.288L513,997.472l12.992,11.508v4.93Z" transform="translate(-255 -930)"/>
    </g>
  </g>
</svg>
